<svg width="53" height="43" fill="none" xmlns="http://www.w3.org/2000/svg"><path d="M1.512 21.723L3.55.766h19.966v6.853H10.12l-.736 8.836c1.548-1.038 3.143-1.557 4.786-1.557 3.398 0 6.013 1.208 7.845 3.625 1.85 2.416 2.775 5.833 2.775 10.251 0 4.135-1.095 7.468-3.285 9.998-2.19 2.53-5.117 3.794-8.78 3.794-2.17 0-4.181-.51-6.032-1.529a11.578 11.578 0 01-4.39-4.305C1.248 34.901.71 32.824.69 30.502h7.93c.132 1.718.557 3.05 1.275 3.993.717.944 1.642 1.416 2.775 1.416 1.322 0 2.341-.632 3.059-1.897.717-1.284 1.076-3.191 1.076-5.721 0-2.379-.435-4.173-1.303-5.38-.85-1.21-2.049-1.813-3.597-1.813-1.51 0-2.68.519-3.511 1.557l-.51.708-6.372-1.642zm43.386-2.832h8.015v7.448h-8.015v11.526h-7.59V26.34h-8.156v-7.45h8.157V7.846h7.59V18.89z" fill="url(#paint0_linear)"/><defs><linearGradient id="paint0_linear" x1="-2" y1="2" x2="23.765" y2="49.859" gradientUnits="userSpaceOnUse"><stop stop-color="#D10A42"/><stop offset="1" stop-color="#0041CA"/></linearGradient></defs></svg>