<svg width="84" height="43" fill="none" xmlns="http://www.w3.org/2000/svg"><path d="M16.238 26.056c-1.699 1.737-3.559 2.605-5.579 2.605-3.134 0-5.607-1.255-7.42-3.767-1.793-2.53-2.69-5.9-2.69-10.11 0-2.719.51-5.201 1.53-7.448C3.097 5.07 4.513 3.314 6.325 2.068 8.158.822 10.196.2 12.443.2c2.323 0 4.39.69 6.202 2.068 1.813 1.378 3.22 3.36 4.22 5.947 1 2.568 1.501 5.494 1.501 8.78v2.916c0 7.024-1.548 12.518-4.644 16.483-3.078 3.946-7.449 5.956-13.113 6.032h-.82v-6.91h.537c3.134-.02 5.485-.831 7.052-2.436 1.586-1.605 2.54-3.946 2.86-7.023zm-3.54-3.682c1.548 0 2.766-1.057 3.654-3.172V15.52c0-2.7-.369-4.814-1.105-6.343-.736-1.548-1.69-2.323-2.86-2.323-1.152 0-2.087.765-2.804 2.294-.699 1.51-1.048 3.361-1.048 5.551 0 2.38.368 4.258 1.105 5.636.736 1.36 1.755 2.039 3.058 2.039zm41.291 2.577c0 5.702-1.038 10.063-3.115 13.084-2.058 3.021-5.003 4.531-8.836 4.531-3.795 0-6.73-1.463-8.807-4.39-2.059-2.945-3.125-7.155-3.2-12.63v-7.788c0-5.683 1.028-10.026 3.086-13.028C35.175 1.71 38.13.2 41.981.2c3.852 0 6.807 1.49 8.865 4.474 2.058 2.983 3.106 7.24 3.143 12.772v7.505zm-8.043-8.354c0-3.248-.32-5.683-.963-7.307-.641-1.624-1.642-2.436-3.002-2.436-2.548 0-3.87 2.974-3.964 8.921v10.28c0 3.324.32 5.797.962 7.42.661 1.624 1.68 2.436 3.06 2.436 1.302 0 2.265-.755 2.888-2.266.642-1.529.981-3.86 1.02-6.995V16.597zM83.33 24.95c0 5.702-1.038 10.063-3.115 13.084-2.058 3.021-5.003 4.531-8.836 4.531-3.795 0-6.73-1.463-8.808-4.39-2.058-2.945-3.124-7.155-3.2-12.63v-7.788c0-5.683 1.03-10.026 3.087-13.028C64.515 1.71 67.47.2 71.321.2c3.852 0 6.807 1.49 8.865 4.474 2.057 2.983 3.105 7.24 3.143 12.772v7.505zm-8.043-8.354c0-3.248-.32-5.683-.963-7.307-.642-1.624-1.642-2.436-3.002-2.436-2.549 0-3.87 2.974-3.965 8.921v10.28c0 3.324.321 5.797.963 7.42.661 1.624 1.68 2.436 3.059 2.436 1.303 0 2.266-.755 2.889-2.266.642-1.529.981-3.86 1.02-6.995V16.597z" fill="url(#paint0_linear)"/><defs><linearGradient id="paint0_linear" x1="-2" y1="2" x2="16.237" y2="33.256" gradientUnits="userSpaceOnUse"><stop stop-color="#D10A42"/><stop offset="1" stop-color="#0041CA"/></linearGradient></defs></svg>